<svg width="512" height="222" viewBox="0 0 512 222" fill="none" xmlns="http://www.w3.org/2000/svg">
<g clip-path="url(#clip0_1328_946)">
<path d="M68.0303 137.169V123.873C66.8115 125.978 65.2603 127.972 63.4876 129.634C60.7176 132.404 57.3937 134.731 53.8481 136.504C49.527 138.609 44.7626 139.717 39.8875 139.606C32.464 139.717 25.1513 137.723 18.9466 133.734C12.9634 129.856 8.1991 124.427 4.98595 118.111C1.66199 111.352 -0.110785 103.929 1.38479e-05 96.2839C-0.110785 88.7496 1.66199 81.2153 4.98595 74.4565C8.1991 68.0302 12.9634 62.7119 18.9466 58.7232C25.1513 54.7344 32.464 52.6292 39.8875 52.8508C44.541 52.74 49.0838 53.6264 53.4049 55.2884C56.8397 56.618 60.0528 58.6124 62.8228 61.0499C64.8172 62.8227 66.4791 64.8171 67.8087 67.1438V55.3992H97.9459V137.279L68.0303 137.169ZM29.694 96.2839C29.694 99.8294 30.5804 103.264 32.2424 106.256C33.9044 109.136 36.3419 111.574 39.2227 113.236C42.1035 114.898 45.4274 115.784 48.8622 115.674C52.2969 115.784 55.6209 114.898 58.5016 113.236C61.2716 111.574 63.5984 109.136 65.1495 106.256C68.3627 99.9402 68.3627 92.5167 65.1495 86.2012C63.5984 83.3204 61.2716 80.8829 58.5016 79.2209C55.6209 77.5589 52.1861 76.6725 48.8622 76.7833C45.5382 76.7833 42.2143 77.6697 39.2227 79.3317C36.3419 80.9937 33.9044 83.4312 32.2424 86.312C30.5804 89.3036 29.694 92.8491 29.694 96.2839Z" fill="#253570"/>
<path d="M159.439 52.9619C165.201 52.9619 170.851 54.1807 176.17 56.3967C181.599 58.7234 186.252 62.4906 189.576 67.3657C193.122 72.3517 195.006 78.9996 195.006 87.1987V137.169H164.536V92.1846C164.536 86.3123 163.096 81.8803 160.326 78.9996C157.445 76.008 153.456 74.4568 149.357 74.5676C146.365 74.5676 143.484 75.3432 140.936 76.8944C138.277 78.4456 136.061 80.7724 134.51 83.4315C132.848 86.4231 131.961 89.747 132.072 93.1818V137.169H101.824V55.3995H132.183V67.3657C133.291 64.8174 134.953 62.4906 137.169 60.7178C140.049 58.2802 143.373 56.5075 146.808 55.1779C150.908 53.7375 155.118 52.9619 159.439 52.9619Z" fill="#253570"/>
<path d="M262.149 137.169V123.873C260.931 125.978 259.379 127.972 257.607 129.634C254.837 132.404 251.513 134.731 247.967 136.504C243.646 138.609 238.882 139.606 234.007 139.606C226.583 139.717 219.27 137.723 213.066 133.734C207.083 129.856 202.318 124.427 199.105 118.111C195.781 111.352 194.008 103.929 194.119 96.2839C194.008 88.7496 195.781 81.2153 199.105 74.4565C202.318 68.0302 207.083 62.7119 213.066 58.7232C219.27 54.7344 226.583 52.6292 234.007 52.8508C238.66 52.74 243.203 53.6264 247.524 55.2884C250.959 56.618 254.172 58.6124 256.942 61.0499C258.936 62.8227 260.598 64.8171 261.928 67.1438V55.3992H292.065V137.279L262.149 137.169ZM241.652 180.934C236.001 180.934 230.239 180.38 224.589 179.494C219.16 178.496 213.841 176.834 208.855 174.397C204.091 172.07 199.881 168.746 196.557 164.536L214.284 146.143C215.946 148.138 217.83 149.91 219.935 151.462C222.484 153.345 225.254 154.785 228.245 155.783C232.123 157.001 236.223 157.555 240.322 157.445C244.311 157.555 248.189 156.78 251.845 155.229C254.948 153.788 257.607 151.462 259.49 148.581C261.374 145.368 262.371 141.711 262.26 137.944V135.95H292.065V139.717C292.065 148.802 289.849 156.337 285.306 162.541C280.764 168.857 274.448 173.621 267.246 176.502C259.047 179.604 250.294 181.156 241.652 180.934ZM223.924 96.2839C223.924 99.8294 224.81 103.264 226.472 106.256C228.134 109.136 230.461 111.574 233.342 113.236C236.223 114.898 239.547 115.784 242.981 115.674C246.416 115.784 249.74 114.898 252.621 113.236C255.391 111.574 257.607 109.247 259.158 106.367C262.371 100.051 262.371 92.6275 259.158 86.312C255.945 80.3289 249.629 76.5617 242.871 76.7833C239.436 76.7833 236.112 77.6697 233.231 79.3317C230.35 80.9937 227.913 83.4312 226.362 86.312C224.7 89.4144 223.813 92.8491 223.924 96.2839Z" fill="#253570"/>
<path d="M321.537 102.71C321.648 105.48 322.645 108.25 324.307 110.577C326.08 112.904 328.407 114.787 331.177 115.895C334.501 117.225 338.157 117.89 341.703 117.779C345.248 117.89 348.683 117.447 352.118 116.671C354.888 116.006 357.658 115.009 360.206 113.68C362.2 112.682 363.973 111.464 365.524 109.912L377.269 128.637C375.164 130.742 372.837 132.404 370.178 133.845C366.411 135.728 362.422 137.169 358.322 137.944C352.228 139.163 345.913 139.717 339.708 139.606C331.398 139.717 323.088 138.055 315.443 134.51C308.574 131.296 302.812 126.089 298.934 119.552C294.946 113.015 292.951 104.926 292.951 95.287C292.84 87.7527 294.613 80.3291 298.159 73.792C301.704 67.3657 306.912 62.0474 313.338 58.6126C319.986 54.8455 327.964 52.9619 337.381 52.9619C346.245 52.9619 354.001 54.6239 360.538 57.8371C366.965 60.9394 372.283 66.0361 375.607 72.3517C379.152 78.778 380.925 86.7555 380.925 96.3949V99.4973C380.925 100.605 380.925 101.713 380.704 102.71H321.537ZM352.561 86.8663C352.45 84.6503 351.896 82.4343 350.899 80.4399C349.791 78.3348 348.129 76.4512 346.134 75.2324C343.697 73.792 340.816 73.1272 337.935 73.238C334.944 73.1272 332.063 73.792 329.515 75.2324C327.41 76.4512 325.637 78.224 324.307 80.3292C323.088 82.3235 322.424 84.5395 322.202 86.8663H352.561Z" fill="#253570"/>
<path d="M413.168 137.169H382.809V0H413.279L413.168 137.169Z" fill="#253570"/>
<path d="M482.195 137.169V123.873C480.976 125.978 479.425 127.972 477.652 129.634C474.882 132.404 471.558 134.731 468.013 136.504C463.692 138.609 458.927 139.717 454.052 139.606C446.629 139.717 439.427 137.723 433.111 133.734C427.128 129.856 422.364 124.427 419.151 118.111C415.827 111.352 414.054 103.929 414.165 96.2839C414.054 88.7496 415.827 81.2153 419.151 74.4565C422.364 68.0302 427.128 62.6011 433.111 58.7232C439.316 54.7344 446.629 52.6292 454.052 52.8508C458.595 52.74 463.249 53.6264 467.459 55.2884C470.894 56.618 474.107 58.6124 476.877 61.0499C478.871 62.8227 480.533 64.8171 481.863 67.1438V55.3992H512V137.279L482.195 137.169ZM443.97 96.2839C443.859 99.8294 444.745 103.264 446.518 106.367C448.18 109.247 450.618 111.685 453.498 113.347C456.379 115.009 459.703 115.895 463.138 115.784C466.573 115.895 469.896 115.009 472.777 113.347C475.547 111.685 477.874 109.247 479.425 106.367C482.638 100.051 482.638 92.6275 479.425 86.312C476.212 80.3289 470.007 76.5617 463.138 76.7833C459.703 76.7833 456.379 77.6697 453.498 79.3317C450.618 80.9937 448.18 83.4312 446.518 86.312C444.745 89.3036 443.859 92.8491 443.97 96.2839Z" fill="#253570"/>
<path d="M145.146 184.258C145.589 184.258 145.922 184.479 146.254 184.701C146.586 185.033 146.697 185.477 146.697 185.92V212.179C146.697 212.622 146.476 212.955 146.254 213.287C145.922 213.619 145.589 213.73 145.146 213.73C144.703 213.73 144.26 213.619 143.927 213.287C143.595 212.955 143.484 212.622 143.484 212.179V208.412L144.26 208.19C144.26 208.855 144.038 209.52 143.706 210.185C143.262 210.96 142.708 211.625 142.044 212.179C141.268 212.844 140.492 213.287 139.606 213.73C138.609 214.173 137.612 214.284 136.614 214.284C134.842 214.284 133.18 213.841 131.739 212.844C130.299 211.847 129.08 210.628 128.305 209.077C126.643 205.531 126.643 201.432 128.305 197.886C129.08 196.335 130.299 195.005 131.739 194.119C133.18 193.232 134.842 192.678 136.504 192.789C137.612 192.789 138.609 193.011 139.606 193.343C140.492 193.676 141.379 194.23 142.154 194.894C142.819 195.448 143.484 196.224 143.927 197C144.37 197.664 144.592 198.551 144.592 199.326L143.595 199.105V186.141C143.484 185.033 144.149 184.369 145.146 184.258ZM136.947 211.293C138.166 211.293 139.384 210.96 140.492 210.295C141.49 209.631 142.376 208.633 142.93 207.526C144.149 204.977 144.149 202.096 142.93 199.548C142.376 198.44 141.6 197.443 140.492 196.778C138.387 195.448 135.617 195.448 133.512 196.778C132.515 197.443 131.629 198.44 131.075 199.548C130.521 200.767 130.188 202.207 130.188 203.537C130.188 204.866 130.41 206.307 131.075 207.526C131.629 208.633 132.404 209.631 133.512 210.295C134.509 210.96 135.728 211.293 136.947 211.293Z" fill="#253570"/>
<path d="M174.065 190.241C173.511 190.241 173.067 190.13 172.624 189.798C172.292 189.466 172.07 189.022 172.181 188.579V188.025C172.181 187.582 172.292 187.139 172.735 186.806C173.178 186.474 173.732 186.363 174.175 186.363C174.729 186.363 175.172 186.474 175.616 186.806C175.948 187.139 176.17 187.582 176.059 188.025V188.579C176.059 189.022 175.948 189.466 175.616 189.798C175.062 190.13 174.619 190.241 174.065 190.241ZM175.726 212.179C175.726 212.623 175.505 212.955 175.283 213.287C174.951 213.62 174.618 213.731 174.175 213.731C173.732 213.731 173.289 213.62 172.957 213.287C172.624 212.955 172.513 212.623 172.513 212.179V194.562C172.513 193.676 173.178 192.9 174.065 192.9C174.065 192.9 174.064 192.9 174.175 192.9C174.618 192.9 174.951 193.122 175.283 193.344C175.616 193.676 175.726 194.119 175.726 194.562V212.179Z" fill="#253570"/>
<path d="M204.867 212.179C204.867 212.622 204.645 212.955 204.423 213.287C204.091 213.619 203.759 213.73 203.315 213.73C202.872 213.73 202.54 213.509 202.207 213.287C201.875 212.955 201.764 212.622 201.764 212.179V185.92C201.764 185.477 201.875 185.033 202.207 184.701C202.54 184.369 202.872 184.258 203.315 184.258C203.759 184.258 204.202 184.369 204.534 184.701C204.867 185.033 204.977 185.477 204.977 185.92L204.867 212.179Z" fill="#253570"/>
<path d="M250.626 203.426C250.626 205.31 250.183 207.304 249.297 208.966C248.41 210.517 247.081 211.847 245.53 212.733C243.978 213.62 242.095 214.174 240.322 214.174C238.438 214.174 236.666 213.73 235.004 212.733C233.453 211.847 232.123 210.517 231.237 208.966C229.464 205.531 229.464 201.321 231.237 197.886C233.009 194.562 236.444 192.568 240.211 192.679C242.095 192.679 243.868 193.122 245.419 194.119C246.97 195.005 248.3 196.335 249.186 197.997C250.183 199.548 250.626 201.543 250.626 203.426ZM247.302 203.426C247.302 201.986 246.97 200.656 246.416 199.437C245.862 198.329 244.976 197.332 243.868 196.667C242.76 196.003 241.541 195.67 240.322 195.67C238.992 195.67 237.774 196.003 236.666 196.667C235.558 197.332 234.671 198.329 234.117 199.437C232.899 201.986 232.899 204.977 234.117 207.526C234.671 208.634 235.558 209.631 236.666 210.296C237.774 210.96 238.992 211.293 240.322 211.293C241.541 211.293 242.87 210.96 243.868 210.296C244.976 209.631 245.862 208.634 246.416 207.526C247.081 206.196 247.413 204.867 247.302 203.426Z" fill="#253570"/>
<path d="M290.735 192.9C291.179 192.9 291.511 193.122 291.843 193.344C292.176 193.676 292.287 194.119 292.287 194.562V211.958C292.397 213.841 291.954 215.836 290.957 217.498C290.181 218.938 288.852 220.046 287.411 220.711C285.86 221.486 284.088 221.819 282.426 221.819C281.428 221.819 280.431 221.708 279.434 221.486C278.658 221.376 277.772 221.043 277.107 220.6C276.664 220.378 276.221 220.157 275.999 219.714C275.778 219.381 275.778 218.938 275.888 218.606C275.999 218.162 276.332 217.83 276.664 217.608C276.996 217.387 277.44 217.387 277.772 217.608C278.215 217.83 278.769 218.052 279.656 218.384C280.542 218.716 281.428 218.938 282.426 218.827C283.644 218.827 284.863 218.606 285.971 218.052C286.968 217.498 287.744 216.722 288.187 215.725C288.741 214.506 289.073 213.177 288.963 211.958V209.188L289.406 210.185C288.963 211.071 288.409 211.736 287.744 212.401C286.968 213.066 286.193 213.509 285.306 213.841C284.309 214.174 283.312 214.395 282.204 214.284C280.874 214.284 279.545 213.952 278.326 213.287C277.329 212.623 276.442 211.736 275.999 210.628C275.445 209.409 275.224 208.08 275.224 206.639V194.562C275.224 194.119 275.334 193.676 275.667 193.344C275.999 193.011 276.332 192.9 276.775 192.9C277.218 192.9 277.55 193.122 277.883 193.344C278.215 193.676 278.326 194.119 278.326 194.562V205.864C278.215 207.304 278.658 208.745 279.545 209.963C280.542 210.961 281.872 211.404 283.312 211.293C284.309 211.293 285.306 211.071 286.193 210.628C287.079 210.185 287.744 209.52 288.298 208.634C288.852 207.858 289.073 206.861 289.073 205.864V194.562C289.073 193.676 289.738 192.9 290.625 192.9C290.625 192.9 290.625 192.9 290.735 192.9Z" fill="#253570"/>
<path d="M335.166 193.011C336.052 193.011 336.717 193.676 336.717 194.562V212.179C336.717 212.623 336.495 212.955 336.273 213.287C335.941 213.62 335.609 213.731 335.166 213.731C334.722 213.731 334.279 213.62 333.947 213.287C333.614 212.955 333.504 212.623 333.504 212.179V208.412L334.279 208.301C334.279 208.966 334.058 209.631 333.725 210.296C333.282 211.071 332.728 211.625 332.063 212.179C331.288 212.844 330.512 213.287 329.626 213.62C328.628 214.063 327.631 214.174 326.634 214.174C324.861 214.174 323.199 213.731 321.759 212.733C320.319 211.736 319.1 210.407 318.324 208.855C316.662 205.31 316.662 201.321 318.324 197.776C319.1 196.224 320.319 194.895 321.759 194.008C324.196 192.568 327.077 192.236 329.736 193.233C330.734 193.565 331.509 194.119 332.285 194.784C332.95 195.338 333.504 196.114 333.947 196.889C334.279 197.554 334.501 198.44 334.501 199.216L333.504 198.994V194.673C333.504 194.23 333.614 193.898 333.947 193.565C334.279 193.233 334.722 193.011 335.166 193.011ZM326.966 211.293C328.185 211.293 329.404 210.961 330.512 210.296C331.509 209.631 332.396 208.634 332.95 207.526C333.504 206.307 333.836 204.867 333.836 203.537C333.836 202.208 333.504 200.767 332.95 199.548C332.396 198.44 331.62 197.443 330.512 196.778C329.515 196.114 328.296 195.67 326.966 195.781C325.748 195.781 324.529 196.114 323.532 196.778C322.534 197.443 321.648 198.44 321.094 199.548C320.54 200.767 320.208 202.208 320.208 203.537C320.208 204.867 320.429 206.307 321.094 207.526C321.648 208.634 322.424 209.631 323.532 210.296C324.529 210.961 325.748 211.293 326.966 211.293Z" fill="#253570"/>
<path d="M372.837 192.678C374.388 192.568 375.829 193.011 377.158 193.786C378.155 194.562 378.931 195.559 379.374 196.778C379.817 198.108 380.039 199.548 380.039 200.988V212.179C380.039 212.622 379.817 212.955 379.596 213.287C379.263 213.619 378.931 213.73 378.488 213.73C378.045 213.73 377.712 213.509 377.38 213.287C377.047 212.955 376.937 212.622 376.937 212.179V201.099C376.937 200.213 376.826 199.216 376.493 198.329C376.161 197.554 375.607 196.889 374.942 196.335C374.056 195.781 373.059 195.559 372.061 195.559C370.953 195.559 369.956 195.781 368.959 196.335C368.073 196.778 367.297 197.443 366.743 198.329C366.189 199.105 365.857 200.102 365.857 201.099V212.179C365.857 212.622 365.746 212.955 365.414 213.287C365.081 213.619 364.749 213.73 364.306 213.73C363.862 213.73 363.53 213.509 363.198 213.287C362.865 212.955 362.754 212.622 362.754 212.179V194.784C362.754 194.34 362.865 193.897 363.198 193.565C363.862 193.011 364.86 193.011 365.524 193.565C365.857 193.897 365.968 194.34 365.968 194.784V197.554L365.192 198.44C365.303 197.664 365.635 197 366.078 196.335C366.522 195.559 367.186 195.005 367.851 194.451C368.627 193.897 369.402 193.454 370.289 193.122C371.175 192.9 371.951 192.678 372.837 192.678Z" fill="#253570"/>
</g>
<defs>
<clipPath id="clip0_1328_946">
<rect width="512" height="221.819" fill="white"/>
</clipPath>
</defs>
</svg>
