<svg width="300" height="107" viewBox="0 0 300 107" fill="none" xmlns="http://www.w3.org/2000/svg">
<path d="M39.8614 80.3897V72.5975C39.1473 73.8313 38.2384 75.0001 37.1997 75.9742C35.5767 77.5975 33.629 78.9612 31.5516 80.0001C29.0196 81.2339 26.228 81.8832 23.3715 81.8183C19.0218 81.8832 14.737 80.7144 11.1014 78.3767C7.5957 76.104 4.80409 72.9222 2.92138 69.2209C0.973755 65.2599 -0.0649816 60.9092 -6.05506e-05 56.4287C-0.0649816 52.0131 0.973755 47.5975 2.92138 43.6365C4.80409 39.8703 7.5957 36.7534 11.1014 34.4157C14.737 32.078 19.0218 30.8443 23.3715 30.9741C26.0982 30.9092 28.7599 31.4287 31.2919 32.4027C33.3044 33.1819 35.1871 34.3508 36.8102 35.7793C37.9787 36.8183 38.9525 37.9871 39.7316 39.3508V32.4677H57.3901V80.4547L39.8614 80.3897ZM17.3988 56.4287C17.3988 58.5066 17.9181 60.5196 18.892 62.2729C19.8658 63.9612 21.294 65.3897 22.982 66.3638C24.6699 67.3378 26.6176 67.8573 28.6301 67.7923C30.6427 67.8573 32.5903 67.3378 34.2782 66.3638C35.9013 65.3897 37.2646 63.9612 38.1735 62.2729C40.0562 58.5716 40.0562 54.2209 38.1735 50.5196C37.2646 48.8313 35.9013 47.4027 34.2782 46.4287C32.5903 45.4547 30.5777 44.9352 28.6301 45.0001C26.6825 45.0001 24.7348 45.5196 22.982 46.4936C21.294 47.4677 19.8658 48.8962 18.892 50.5845C17.9181 52.3378 17.3988 54.4157 17.3988 56.4287Z" fill="#253570"/>
<path d="M93.4213 31.0391C96.7972 31.0391 100.108 31.7533 103.224 33.0521C106.405 34.4157 109.132 36.6235 111.08 39.4806C113.157 42.4027 114.261 46.2988 114.261 51.104V80.3897H96.4077V54.0261C96.4077 50.5845 95.5637 47.9871 93.9406 46.2988C92.2527 44.5456 89.9156 43.6365 87.5135 43.7014C85.7606 43.7014 84.0727 44.1559 82.5795 45.065C81.0214 45.9741 79.7229 47.3378 78.8141 48.8962C77.8402 50.6495 77.3209 52.5975 77.3858 54.6105V80.3897H59.6624V32.4676H77.4507V39.4806C78.0999 37.9871 79.0737 36.6235 80.3722 35.5845C82.0601 34.1559 84.0077 33.117 86.0203 32.3378C88.4224 31.4936 90.8894 31.0391 93.4213 31.0391Z" fill="#253570"/>
<path d="M153.603 80.4249V72.6327C152.889 73.8665 151.98 75.0353 150.941 76.0093C149.318 77.6327 147.371 78.9963 145.293 80.0353C142.761 81.269 139.97 81.8535 137.113 81.8535C132.763 81.9184 128.479 80.7496 124.843 78.4119C121.337 76.1392 118.546 72.9574 116.663 69.2561C114.715 65.295 113.677 60.9444 113.742 56.4639C113.677 52.0483 114.715 47.6327 116.663 43.6716C118.546 39.9054 121.337 36.7885 124.843 34.4509C128.479 32.1132 132.763 30.8794 137.113 31.0093C139.84 30.9444 142.502 31.4639 145.034 32.4379C147.046 33.2171 148.929 34.3859 150.552 35.8145C151.72 36.8535 152.694 38.0223 153.473 39.3859V32.5028H171.132V80.4898L153.603 80.4249ZM141.593 106.074C138.282 106.074 134.906 105.75 131.595 105.23C128.414 104.646 125.298 103.672 122.376 102.243C119.585 100.879 117.118 98.9314 115.17 96.4639L125.557 85.6846C126.531 86.8535 127.635 87.8924 128.868 88.8015C130.361 89.9054 131.984 90.7496 133.737 91.334C136.01 92.0483 138.412 92.373 140.814 92.308C143.151 92.373 145.423 91.9184 147.565 91.0093C149.383 90.1652 150.941 88.8015 152.045 87.1132C153.149 85.2301 153.733 83.0872 153.668 80.8794V79.7106H171.132V81.9184C171.132 87.2431 169.833 91.6587 167.172 95.295C164.51 98.9963 160.809 101.789 156.589 103.477C151.785 105.295 146.657 106.204 141.593 106.074ZM131.205 56.4639C131.205 58.5418 131.725 60.5548 132.699 62.308C133.672 63.9963 135.036 65.4249 136.724 66.3989C138.412 67.3729 140.359 67.8924 142.372 67.8275C144.384 67.8924 146.332 67.3729 148.02 66.3989C149.643 65.4249 150.941 64.0613 151.85 62.3729C153.733 58.6716 153.733 54.321 151.85 50.6197C149.968 47.1132 146.267 44.9054 142.307 45.0353C140.294 45.0353 138.347 45.5548 136.659 46.5288C134.971 47.5028 133.543 48.9314 132.634 50.6197C131.66 52.4379 131.14 54.4509 131.205 56.4639Z" fill="#253570"/>
<path d="M188.401 60.1949C188.466 61.8183 189.05 63.4417 190.024 64.8053C191.062 66.1689 192.426 67.2728 194.049 67.9222C195.996 68.7014 198.139 69.091 200.216 69.0261C202.294 69.091 204.306 68.8313 206.319 68.3767C207.942 67.9871 209.565 67.4027 211.058 66.6235C212.227 66.0391 213.265 65.3248 214.174 64.4157L221.056 75.3897C219.822 76.6235 218.459 77.5975 216.901 78.4417C214.694 79.5456 212.357 80.3897 209.954 80.8443C206.384 81.5585 202.683 81.8832 199.048 81.8183C194.179 81.8832 189.31 80.9092 184.83 78.8313C180.805 76.9482 177.429 73.8962 175.157 70.065C172.82 66.2339 171.651 61.4936 171.651 55.8443C171.586 51.4287 172.625 47.078 174.702 43.2469C176.78 39.4806 179.831 36.3637 183.597 34.3508C187.492 32.143 192.166 31.0391 197.684 31.0391C202.878 31.0391 207.423 32.0131 211.253 33.8962C215.018 35.7144 218.135 38.7014 220.082 42.4027C222.16 46.1689 223.198 50.8443 223.198 56.4936V58.3118C223.198 58.9611 223.198 59.6105 223.069 60.1949H188.401ZM206.579 50.9092C206.514 49.6105 206.189 48.3118 205.605 47.143C204.956 45.9092 203.982 44.8053 202.813 44.091C201.385 43.2469 199.697 42.8572 198.009 42.9222C196.256 42.8572 194.568 43.2469 193.075 44.091C191.841 44.8053 190.803 45.8443 190.024 47.078C189.31 48.2469 188.92 49.5456 188.79 50.9092H206.579Z" fill="#253570"/>
<path d="M242.09 80.3896H224.302V0H242.155L242.09 80.3896Z" fill="#253570"/>
<path d="M282.536 80.3897V72.5975C281.822 73.8313 280.913 75.0001 279.874 75.9742C278.251 77.5975 276.304 78.9612 274.226 80.0001C271.694 81.2339 268.903 81.8832 266.046 81.8183C261.697 81.8832 257.477 80.7144 253.776 78.3767C250.271 76.104 247.479 72.9222 245.596 69.2209C243.649 65.2599 242.61 60.9092 242.675 56.4287C242.61 52.0131 243.649 47.5975 245.596 43.6365C247.479 39.8703 250.271 36.6884 253.776 34.4157C257.412 32.078 261.697 30.8443 266.046 30.9741C268.708 30.9092 271.435 31.4287 273.902 32.4027C275.914 33.1819 277.797 34.3508 279.42 35.7793C280.589 36.8183 281.562 37.9871 282.341 39.3508V32.4677H300V80.4547L282.536 80.3897ZM260.139 56.4287C260.074 58.5066 260.593 60.5196 261.632 62.3378C262.606 64.0261 264.034 65.4547 265.722 66.4287C267.41 67.4027 269.357 67.9222 271.37 67.8573C273.382 67.9222 275.33 67.4027 277.018 66.4287C278.641 65.4547 280.004 64.0261 280.913 62.3378C282.796 58.6365 282.796 54.2858 280.913 50.5845C279.031 47.078 275.395 44.8703 271.37 45.0001C269.357 45.0001 267.41 45.5196 265.722 46.4936C264.034 47.4677 262.606 48.8962 261.632 50.5845C260.593 52.3378 260.074 54.4157 260.139 56.4287Z" fill="#253570"/>
<path d="M189.289 92C189.492 92 189.645 92.1033 189.797 92.2066C189.949 92.3616 190 92.5683 190 92.7749V105.018C190 105.225 189.898 105.38 189.797 105.535C189.645 105.69 189.492 105.742 189.289 105.742C189.086 105.742 188.883 105.69 188.731 105.535C188.578 105.38 188.528 105.225 188.528 105.018V103.262L188.883 103.159C188.883 103.469 188.781 103.779 188.629 104.089C188.426 104.45 188.172 104.76 187.867 105.018C187.512 105.328 187.157 105.535 186.75 105.742C186.293 105.948 185.836 106 185.379 106C184.567 106 183.805 105.793 183.145 105.328C182.485 104.863 181.927 104.295 181.571 103.572C180.81 101.919 180.81 100.007 181.571 98.3542C181.927 97.631 182.485 97.0111 183.145 96.5978C183.805 96.1845 184.567 95.9262 185.329 95.9779C185.836 95.9779 186.293 96.0812 186.75 96.2362C187.157 96.3911 187.563 96.6494 187.918 96.9594C188.223 97.2177 188.528 97.5793 188.731 97.941C188.934 98.2509 189.035 98.6642 189.035 99.0258L188.578 98.9225V92.8782C188.528 92.3616 188.832 92.0517 189.289 92ZM185.532 104.605C186.09 104.605 186.649 104.45 187.157 104.14C187.614 103.83 188.02 103.365 188.274 102.849C188.832 101.661 188.832 100.317 188.274 99.1292C188.02 98.6125 187.664 98.1476 187.157 97.8376C186.192 97.2177 184.922 97.2177 183.958 97.8376C183.501 98.1476 183.095 98.6125 182.841 99.1292C182.587 99.6974 182.434 100.369 182.434 100.989C182.434 101.609 182.536 102.28 182.841 102.849C183.095 103.365 183.45 103.83 183.958 104.14C184.415 104.45 184.973 104.605 185.532 104.605Z" fill="#253570"/>
<path d="M202.972 94.8421C202.69 94.8421 202.465 94.7895 202.24 94.6316C202.071 94.4737 201.958 94.2632 202.015 94.0526V93.7895C202.015 93.5789 202.071 93.3684 202.296 93.2105C202.521 93.0526 202.803 93 203.028 93C203.31 93 203.535 93.0526 203.76 93.2105C203.929 93.3684 204.042 93.5789 203.985 93.7895V94.0526C203.985 94.2632 203.929 94.4737 203.76 94.6316C203.479 94.7895 203.253 94.8421 202.972 94.8421ZM203.816 105.263C203.816 105.474 203.704 105.632 203.591 105.789C203.422 105.947 203.253 106 203.028 106C202.803 106 202.578 105.947 202.409 105.789C202.24 105.632 202.184 105.474 202.184 105.263V96.8947C202.184 96.4737 202.521 96.1053 202.972 96.1053C202.972 96.1053 202.972 96.1053 203.028 96.1053C203.253 96.1053 203.422 96.2105 203.591 96.3158C203.76 96.4737 203.816 96.6842 203.816 96.8947V105.263Z" fill="#253570"/>
<path d="M217.931 105.263C217.931 105.474 217.793 105.632 217.655 105.789C217.448 105.947 217.241 106 216.966 106C216.69 106 216.483 105.895 216.276 105.789C216.069 105.632 216 105.474 216 105.263V92.7895C216 92.5789 216.069 92.3684 216.276 92.2105C216.483 92.0526 216.69 92 216.966 92C217.241 92 217.517 92.0526 217.724 92.2105C217.931 92.3684 218 92.5789 218 92.7895L217.931 105.263Z" fill="#253570"/>
<path d="M239 101.001C239 101.877 238.786 102.805 238.358 103.578C237.93 104.299 237.289 104.918 236.54 105.33C235.791 105.742 234.882 106 234.027 106C233.118 106 232.262 105.794 231.46 105.33C230.711 104.918 230.07 104.299 229.642 103.578C228.786 101.98 228.786 100.022 229.642 98.4242C230.497 96.8782 232.155 95.9505 233.973 96.002C234.882 96.002 235.738 96.2082 236.487 96.672C237.235 97.0843 237.877 97.7027 238.305 98.4758C238.786 99.1973 239 100.125 239 101.001ZM237.396 101.001C237.396 100.331 237.235 99.7126 236.968 99.1457C236.701 98.6304 236.273 98.1665 235.738 97.8573C235.203 97.5481 234.615 97.3935 234.027 97.3935C233.385 97.3935 232.797 97.5481 232.262 97.8573C231.727 98.1665 231.299 98.6304 231.032 99.1457C230.444 100.331 230.444 101.723 231.032 102.908C231.299 103.423 231.727 103.887 232.262 104.196C232.797 104.505 233.385 104.66 234.027 104.66C234.615 104.66 235.257 104.505 235.738 104.196C236.273 103.887 236.701 103.423 236.968 102.908C237.289 102.289 237.449 101.671 237.396 101.001Z" fill="#253570"/>
<path d="M258.266 92C258.473 92 258.629 92.1073 258.785 92.2146C258.94 92.3755 258.992 92.59 258.992 92.8046V101.226C259.044 102.138 258.837 103.103 258.369 103.908C258.006 104.605 257.383 105.142 256.709 105.464C255.982 105.839 255.152 106 254.373 106C253.906 106 253.439 105.946 252.972 105.839C252.609 105.785 252.194 105.625 251.882 105.41C251.675 105.303 251.467 105.195 251.363 104.981C251.259 104.82 251.259 104.605 251.311 104.444C251.363 104.23 251.519 104.069 251.675 103.962C251.83 103.854 252.038 103.854 252.194 103.962C252.401 104.069 252.661 104.176 253.076 104.337C253.491 104.498 253.906 104.605 254.373 104.552C254.944 104.552 255.515 104.444 256.034 104.176C256.501 103.908 256.864 103.533 257.072 103.05C257.332 102.46 257.487 101.816 257.435 101.226V99.8851L257.643 100.368C257.435 100.797 257.176 101.119 256.864 101.441C256.501 101.762 256.138 101.977 255.723 102.138C255.256 102.299 254.789 102.406 254.27 102.352C253.647 102.352 253.024 102.192 252.453 101.87C251.986 101.548 251.571 101.119 251.363 100.582C251.104 99.9923 251 99.3487 251 98.6513V92.8046C251 92.59 251.052 92.3755 251.208 92.2146C251.363 92.0536 251.519 92 251.727 92C251.934 92 252.09 92.1073 252.246 92.2146C252.401 92.3755 252.453 92.59 252.453 92.8046V98.2759C252.401 98.9732 252.609 99.6705 253.024 100.261C253.491 100.743 254.114 100.958 254.789 100.904C255.256 100.904 255.723 100.797 256.138 100.582C256.553 100.368 256.864 100.046 257.124 99.6169C257.383 99.2414 257.487 98.7586 257.487 98.2759V92.8046C257.487 92.3755 257.799 92 258.214 92C258.214 92 258.214 92 258.266 92Z" fill="#253570"/>
<path d="M279.289 96.1634C279.695 96.1634 280 96.4724 280 96.8844V105.073C280 105.279 279.898 105.433 279.797 105.588C279.645 105.742 279.492 105.794 279.289 105.794C279.086 105.794 278.883 105.742 278.731 105.588C278.578 105.433 278.528 105.279 278.528 105.073V103.322L278.883 103.27C278.883 103.579 278.781 103.888 278.629 104.197C278.426 104.558 278.172 104.815 277.867 105.073C277.512 105.382 277.157 105.588 276.75 105.742C276.293 105.948 275.836 106 275.379 106C274.567 106 273.805 105.794 273.145 105.33C272.485 104.867 271.927 104.249 271.571 103.528C270.81 101.88 270.81 100.026 271.571 98.3779C271.927 97.6569 272.485 97.0389 273.145 96.6269C274.262 95.9574 275.583 95.8029 276.801 96.2664C277.258 96.4209 277.614 96.6784 277.969 96.9874C278.274 97.2449 278.528 97.6054 278.731 97.9659C278.883 98.2749 278.984 98.6869 278.984 99.0474L278.528 98.9444V96.9359C278.528 96.7299 278.578 96.5754 278.731 96.4209C278.883 96.2664 279.086 96.1634 279.289 96.1634ZM275.532 104.661C276.09 104.661 276.649 104.506 277.157 104.197C277.614 103.888 278.02 103.425 278.274 102.91C278.528 102.343 278.68 101.674 278.68 101.056C278.68 100.438 278.528 99.7685 278.274 99.202C278.02 98.6869 277.664 98.2234 277.157 97.9144C276.7 97.6054 276.141 97.3994 275.532 97.4509C274.973 97.4509 274.415 97.6054 273.958 97.9144C273.501 98.2234 273.094 98.6869 272.841 99.202C272.587 99.7685 272.434 100.438 272.434 101.056C272.434 101.674 272.536 102.343 272.841 102.91C273.094 103.425 273.45 103.888 273.958 104.197C274.415 104.506 274.973 104.661 275.532 104.661Z" fill="#253570"/>
<path d="M296.667 96.008C297.385 95.9554 298.051 96.1658 298.667 96.5339C299.128 96.902 299.487 97.3753 299.692 97.9538C299.897 98.5849 300 99.2685 300 99.9522V105.264C300 105.474 299.897 105.632 299.795 105.79C299.641 105.947 299.487 106 299.282 106C299.077 106 298.923 105.895 298.769 105.79C298.615 105.632 298.564 105.474 298.564 105.264V100.005C298.564 99.5841 298.513 99.1108 298.359 98.6901C298.205 98.3219 297.949 98.0064 297.641 97.7435C297.231 97.4805 296.769 97.3753 296.308 97.3753C295.795 97.3753 295.333 97.4805 294.872 97.7435C294.462 97.9538 294.103 98.2693 293.846 98.6901C293.59 99.0582 293.436 99.5315 293.436 100.005V105.264C293.436 105.474 293.385 105.632 293.231 105.79C293.077 105.947 292.923 106 292.718 106C292.513 106 292.359 105.895 292.205 105.79C292.051 105.632 292 105.474 292 105.264V97.0072C292 96.7968 292.051 96.5865 292.205 96.4287C292.513 96.1658 292.974 96.1658 293.282 96.4287C293.436 96.5865 293.487 96.7968 293.487 97.0072V98.3219L293.128 98.7427C293.179 98.3745 293.333 98.059 293.538 97.7435C293.744 97.3753 294.051 97.1124 294.359 96.8494C294.718 96.5865 295.077 96.3761 295.487 96.2184C295.897 96.1132 296.256 96.008 296.667 96.008Z" fill="#253570"/>
</svg>
